<svg width="358" height="76" viewBox="0 0 358 76" fill="none" xmlns="http://www.w3.org/2000/svg">
<path fill-rule="evenodd" clip-rule="evenodd" d="M75.17 37.585C75.17 16.8274 58.3426 0 37.585 0C16.8274 0 0 16.8274 0 37.585H75.17ZM0 37.5852H37.585H75.17V56.3777C75.17 66.7565 66.7563 75.1702 56.3775 75.1702C45.9987 75.1702 37.585 66.7565 37.585 56.3777C37.585 66.7565 29.1713 75.1702 18.7925 75.1702C8.41369 75.1702 0 66.7565 0 56.3777V37.5852Z" fill="#FF7A00"/>
<path fill-rule="evenodd" clip-rule="evenodd" d="M94 37.5826C94 16.8263 110.826 0 131.583 0C152.339 0 169.165 16.8263 169.165 37.5826H94ZM94.0002 37.5828H131.582H131.583H169.165V56.3741C169.165 66.7522 160.752 75.1654 150.373 75.1654C140.035 75.1654 131.647 66.8165 131.582 56.4932C131.518 66.8165 123.13 75.1654 112.792 75.1654C102.413 75.1654 94.0002 66.7522 94.0002 56.3741V37.5828Z" fill="#FF7A00"/>
<path fill-rule="evenodd" clip-rule="evenodd" d="M188 37.5826L188 18.7913C188 8.41314 196.413 -9.07283e-07 206.791 0C217.17 9.07297e-07 225.583 8.41316 225.583 18.7913V37.5826L225.583 37.5826V18.7913C225.583 8.41314 233.996 -9.07283e-07 244.374 0C254.752 9.07297e-07 263.165 8.41316 263.165 18.7913V37.5826H263.165C263.165 58.3389 246.339 75.1652 225.583 75.1652C204.826 75.1652 188 58.3389 188 37.5826L188 37.5826Z" fill="#FFE707"/>
<path fill-rule="evenodd" clip-rule="evenodd" d="M319.583 37.5826V8.2139e-07L338.374 0C348.753 -4.53649e-07 357.166 8.41315 357.166 18.7913C357.166 29.1695 348.753 37.5826 338.374 37.5826H319.583V37.5827H338.374C348.752 37.5827 357.165 45.9958 357.165 56.374C357.165 66.7522 348.752 75.1653 338.374 75.1653H319.583V75.1652H300.792C290.414 75.1652 282 66.752 282 56.3739C282 46.0119 290.387 37.6088 300.743 37.5826C290.387 37.5567 282 29.1535 282 18.7914C282 8.41323 290.413 8.03971e-05 300.791 7.94898e-05L319.583 7.7847e-05V37.5826H319.583Z" fill="#FFE707"/>
</svg>
